<?xml version="1.0" encoding="UTF-8"?>
<svg width="700pt" height="700pt" version="1.1" viewBox="0 0 700 700" xmlns="http://www.w3.org/2000/svg" xmlns:xlink="http://www.w3.org/1999/xlink">
 <defs>
  <symbol id="g" overflow="visible">
   <path d="m18.766-1.125c-0.96875 0.5-1.9805 0.875-3.0312 1.125-1.043 0.25781-2.1367 0.39062-3.2812 0.39062-3.3984 0-6.0898-0.94531-8.0781-2.8438-1.9922-1.9062-2.9844-4.4844-2.9844-7.7344 0-3.2578 0.99219-5.8359 2.9844-7.7344 1.9883-1.9062 4.6797-2.8594 8.0781-2.8594 1.1445 0 2.2383 0.13281 3.2812 0.39062 1.0508 0.25 2.0625 0.625 3.0312 1.125v4.2188c-0.98047-0.65625-1.9453-1.1406-2.8906-1.4531-0.94922-0.3125-1.9492-0.46875-3-0.46875-1.875 0-3.3516 0.60547-4.4219 1.8125-1.0742 1.1992-1.6094 2.8555-1.6094 4.9688 0 2.1055 0.53516 3.7617 1.6094 4.9688 1.0703 1.1992 2.5469 1.7969 4.4219 1.7969 1.0508 0 2.0508-0.14844 3-0.45312 0.94531-0.3125 1.9102-0.80078 2.8906-1.4688z"/>
  </symbol>
  <symbol id="c" overflow="visible">
   <path d="m13.734-11.141c-0.4375-0.19531-0.87109-0.34375-1.2969-0.4375-0.41797-0.10156-0.83984-0.15625-1.2656-0.15625-1.2617 0-2.2305 0.40625-2.9062 1.2188-0.67969 0.80469-1.0156 1.9531-1.0156 3.4531v7.0625h-4.8906v-15.312h4.8906v2.5156c0.625-1 1.3438-1.7266 2.1562-2.1875 0.82031-0.46875 1.8008-0.70312 2.9375-0.70312 0.16406 0 0.34375 0.011719 0.53125 0.03125 0.19531 0.011719 0.47656 0.039062 0.84375 0.078125z"/>
  </symbol>
  <symbol id="b" overflow="visible">
   <path d="m17.641-7.7031v1.4062h-11.453c0.125 1.1484 0.53906 2.0078 1.25 2.5781 0.70703 0.57422 1.7031 0.85938 2.9844 0.85938 1.0312 0 2.082-0.14844 3.1562-0.45312 1.082-0.3125 2.1914-0.77344 3.3281-1.3906v3.7656c-1.1562 0.4375-2.3125 0.76562-3.4688 0.98438-1.1562 0.22656-2.3125 0.34375-3.4688 0.34375-2.7734 0-4.9297-0.70312-6.4688-2.1094-1.5312-1.4062-2.2969-3.3789-2.2969-5.9219 0-2.5 0.75391-4.4609 2.2656-5.8906 1.5078-1.4375 3.582-2.1562 6.2188-2.1562 2.4062 0 4.332 0.73047 5.7812 2.1875 1.4453 1.4492 2.1719 3.3828 2.1719 5.7969zm-5.0312-1.625c0-0.92578-0.27344-1.6719-0.8125-2.2344-0.54297-0.57031-1.25-0.85938-2.125-0.85938-0.94922 0-1.7188 0.26562-2.3125 0.79688s-0.96484 1.2969-1.1094 2.2969z"/>
  </symbol>
  <symbol id="j" overflow="visible">
   <path d="m9.2188-6.8906c-1.0234 0-1.793 0.17188-2.3125 0.51562-0.51172 0.34375-0.76562 0.85547-0.76562 1.5312 0 0.625 0.20703 1.1172 0.625 1.4688 0.41406 0.34375 0.98828 0.51562 1.7188 0.51562 0.92578 0 1.7031-0.32812 2.3281-0.98438 0.63281-0.66406 0.95312-1.4922 0.95312-2.4844v-0.5625zm7.4688-1.8438v8.7344h-4.9219v-2.2656c-0.65625 0.92969-1.3984 1.6055-2.2188 2.0312-0.82422 0.41406-1.8242 0.625-3 0.625-1.5859 0-2.8711-0.45703-3.8594-1.375-0.99219-0.92578-1.4844-2.1289-1.4844-3.6094 0-1.7891 0.61328-3.1016 1.8438-3.9375 1.2383-0.84375 3.1797-1.2656 5.8281-1.2656h2.8906v-0.39062c0-0.76953-0.30859-1.332-0.92188-1.6875-0.61719-0.36328-1.5703-0.54688-2.8594-0.54688-1.0547 0-2.0312 0.10547-2.9375 0.3125-0.89844 0.21094-1.7305 0.52344-2.5 0.9375v-3.7344c1.0391-0.25 2.0859-0.44141 3.1406-0.57812 1.0625-0.13281 2.125-0.20312 3.1875-0.20312 2.7578 0 4.75 0.54688 5.9688 1.6406 1.2266 1.0859 1.8438 2.8555 1.8438 5.3125z"/>
  </symbol>
  <symbol id="d" overflow="visible">
   <path d="m7.7031-19.656v4.3438h5.0469v3.5h-5.0469v6.5c0 0.71094 0.14062 1.1875 0.42188 1.4375s0.83594 0.375 1.6719 0.375h2.5156v3.5h-4.1875c-1.9375 0-3.3125-0.39844-4.125-1.2031-0.80469-0.8125-1.2031-2.1797-1.2031-4.1094v-6.5h-2.4219v-3.5h2.4219v-4.3438z"/>
  </symbol>
  <symbol id="i" overflow="visible">
   <path d="m12.766-13.078v-8.2031h4.9219v21.281h-4.9219v-2.2188c-0.66797 0.90625-1.4062 1.5703-2.2188 1.9844s-1.7578 0.625-2.8281 0.625c-1.8867 0-3.4336-0.75-4.6406-2.25-1.2109-1.5-1.8125-3.4258-1.8125-5.7812 0-2.3633 0.60156-4.2969 1.8125-5.7969 1.207-1.5 2.7539-2.25 4.6406-2.25 1.0625 0 2 0.21484 2.8125 0.64062 0.82031 0.42969 1.5664 1.0859 2.2344 1.9688zm-3.2188 9.9219c1.0391 0 1.8359-0.37891 2.3906-1.1406 0.55078-0.76953 0.82812-1.8828 0.82812-3.3438 0-1.457-0.27734-2.5664-0.82812-3.3281-0.55469-0.76953-1.3516-1.1562-2.3906-1.1562-1.043 0-1.8398 0.38672-2.3906 1.1562-0.55469 0.76172-0.82812 1.8711-0.82812 3.3281 0 1.4609 0.27344 2.5742 0.82812 3.3438 0.55078 0.76172 1.3477 1.1406 2.3906 1.1406z"/>
  </symbol>
  <symbol id="h" overflow="visible">
   <path d="m10.5-3.1562c1.0508 0 1.8516-0.37891 2.4062-1.1406 0.55078-0.76953 0.82812-1.8828 0.82812-3.3438 0-1.457-0.27734-2.5664-0.82812-3.3281-0.55469-0.76953-1.3555-1.1562-2.4062-1.1562-1.0547 0-1.8594 0.38672-2.4219 1.1562-0.55469 0.77344-0.82812 1.8828-0.82812 3.3281 0 1.4492 0.27344 2.5586 0.82812 3.3281 0.5625 0.77344 1.3672 1.1562 2.4219 1.1562zm-3.25-9.9219c0.67578-0.88281 1.4219-1.5391 2.2344-1.9688 0.82031-0.42578 1.7656-0.64062 2.8281-0.64062 1.8945 0 3.4453 0.75 4.6562 2.25 1.207 1.5 1.8125 3.4336 1.8125 5.7969 0 2.3555-0.60547 4.2812-1.8125 5.7812-1.2109 1.5-2.7617 2.25-4.6562 2.25-1.0625 0-2.0078-0.21094-2.8281-0.625-0.8125-0.42578-1.5586-1.0859-2.2344-1.9844v2.2188h-4.8906v-21.281h4.8906z"/>
  </symbol>
  <symbol id="f" overflow="visible">
   <path d="m0.34375-15.312h4.8906l4.125 10.391 3.5-10.391h4.8906l-6.4375 16.766c-0.64844 1.6953-1.4023 2.8828-2.2656 3.5625-0.86719 0.6875-2 1.0312-3.4062 1.0312h-2.8438v-3.2188h1.5312c0.83203 0 1.4375-0.13672 1.8125-0.40625 0.38281-0.26172 0.67969-0.73047 0.89062-1.4062l0.14062-0.42188z"/>
  </symbol>
  <symbol id="a" overflow="visible">
   <path d="m9.6406-12.188c-1.0859 0-1.9141 0.39062-2.4844 1.1719-0.57422 0.78125-0.85938 1.9062-0.85938 3.375s0.28516 2.5938 0.85938 3.375c0.57031 0.77344 1.3984 1.1562 2.4844 1.1562 1.0625 0 1.875-0.38281 2.4375-1.1562 0.57031-0.78125 0.85938-1.9062 0.85938-3.375s-0.28906-2.5938-0.85938-3.375c-0.5625-0.78125-1.375-1.1719-2.4375-1.1719zm0-3.5c2.6328 0 4.6914 0.71484 6.1719 2.1406 1.4766 1.418 2.2188 3.3867 2.2188 5.9062 0 2.5117-0.74219 4.4805-2.2188 5.9062-1.4805 1.418-3.5391 2.125-6.1719 2.125-2.6484 0-4.7148-0.70703-6.2031-2.125-1.4922-1.4258-2.2344-3.3945-2.2344-5.9062 0-2.5195 0.74219-4.4883 2.2344-5.9062 1.4883-1.4258 3.5547-2.1406 6.2031-2.1406z"/>
  </symbol>
  <symbol id="e" overflow="visible">
   <path d="m17.75-9.3281v9.3281h-4.9219v-7.1406c0-1.3203-0.03125-2.2344-0.09375-2.7344s-0.16797-0.86719-0.3125-1.1094c-0.1875-0.3125-0.44922-0.55469-0.78125-0.73438-0.32422-0.17578-0.69531-0.26562-1.1094-0.26562-1.0234 0-1.8242 0.39844-2.4062 1.1875-0.58594 0.78125-0.875 1.8711-0.875 3.2656v7.5312h-4.8906v-15.312h4.8906v2.2344c0.73828-0.88281 1.5195-1.5391 2.3438-1.9688 0.83203-0.42578 1.75-0.64062 2.75-0.64062 1.7695 0 3.1133 0.54688 4.0312 1.6406 0.91406 1.0859 1.375 2.6562 1.375 4.7188z"/>
  </symbol>
  <symbol id="t" overflow="visible">
   <path d="m7.8281-16.438v12.453h1.8906c2.1562 0 3.8008-0.53125 4.9375-1.5938 1.1328-1.0625 1.7031-2.6133 1.7031-4.6562 0-2.0195-0.57031-3.5547-1.7031-4.6094-1.125-1.0625-2.7734-1.5938-4.9375-1.5938zm-5.25-3.9688h5.5469c3.0938 0 5.3984 0.21875 6.9219 0.65625 1.5195 0.4375 2.8203 1.1875 3.9062 2.25 0.95703 0.91797 1.6641 1.9805 2.125 3.1875 0.46875 1.1992 0.70312 2.5586 0.70312 4.0781 0 1.543-0.23438 2.918-0.70312 4.125-0.46094 1.2109-1.168 2.2773-2.125 3.2031-1.0938 1.0547-2.4062 1.8047-3.9375 2.25-1.5312 0.4375-3.8281 0.65625-6.8906 0.65625h-5.5469z"/>
  </symbol>
  <symbol id="s" overflow="visible">
   <path d="m0.98438-15.312h4.7656l2.5625 10.547 2.5781-10.547h4.0938l2.5781 10.438 2.5781-10.438h4.75l-4.0312 15.312h-5.3438l-2.5781-10.531-2.5781 10.531h-5.3438z"/>
  </symbol>
  <symbol id="r" overflow="visible">
   <path d="m12.422-21.281v3.2188h-2.7031c-0.6875 0-1.1719 0.125-1.4531 0.375-0.27344 0.25-0.40625 0.6875-0.40625 1.3125v1.0625h4.1875v3.5h-4.1875v11.812h-4.8906v-11.812h-2.4375v-3.5h2.4375v-1.0625c0-1.6641 0.46094-2.8984 1.3906-3.7031 0.92578-0.80078 2.3672-1.2031 4.3281-1.2031z"/>
  </symbol>
  <symbol id="q" overflow="visible">
   <path d="m16.547-12.766c0.61328-0.94531 1.3477-1.6719 2.2031-2.1719 0.85156-0.5 1.7891-0.75 2.8125-0.75 1.7578 0 3.0977 0.54688 4.0156 1.6406 0.92578 1.0859 1.3906 2.6562 1.3906 4.7188v9.3281h-4.9219v-7.9844-0.35938c0.007813-0.13281 0.015625-0.32031 0.015625-0.5625 0-1.082-0.16406-1.8633-0.48438-2.3438-0.3125-0.48828-0.82422-0.73438-1.5312-0.73438-0.92969 0-1.6484 0.38672-2.1562 1.1562-0.51172 0.76172-0.77344 1.8672-0.78125 3.3125v7.5156h-4.9219v-7.9844c0-1.6953-0.14844-2.7852-0.4375-3.2656-0.29297-0.48828-0.8125-0.73438-1.5625-0.73438-0.9375 0-1.6641 0.38672-2.1719 1.1562-0.51172 0.76172-0.76562 1.8594-0.76562 3.2969v7.5312h-4.9219v-15.312h4.9219v2.2344c0.60156-0.86328 1.2891-1.5156 2.0625-1.9531 0.78125-0.4375 1.6406-0.65625 2.5781-0.65625 1.0625 0 2 0.25781 2.8125 0.76562 0.8125 0.51172 1.4258 1.2305 1.8438 2.1562z"/>
  </symbol>
  <symbol id="p" overflow="visible">
   <path d="m17.75-9.3281v9.3281h-4.9219v-7.1094c0-1.3438-0.03125-2.2656-0.09375-2.7656s-0.16797-0.86719-0.3125-1.1094c-0.1875-0.3125-0.44922-0.55469-0.78125-0.73438-0.32422-0.17578-0.69531-0.26562-1.1094-0.26562-1.0234 0-1.8242 0.39844-2.4062 1.1875-0.58594 0.78125-0.875 1.8711-0.875 3.2656v7.5312h-4.8906v-21.281h4.8906v8.2031c0.73828-0.88281 1.5195-1.5391 2.3438-1.9688 0.83203-0.42578 1.75-0.64062 2.75-0.64062 1.7695 0 3.1133 0.54688 4.0312 1.6406 0.91406 1.0859 1.375 2.6562 1.375 4.7188z"/>
  </symbol>
  <symbol id="o" overflow="visible">
   <path d="m2.5781-20.406h5.875l7.4219 14v-14h4.9844v20.406h-5.875l-7.4219-14v14h-4.9844z"/>
  </symbol>
  <symbol id="n" overflow="visible">
   <path d="m2.1875-5.9688v-9.3438h4.9219v1.5312c0 0.83594-0.007813 1.875-0.015625 3.125-0.011719 1.25-0.015625 2.0859-0.015625 2.5 0 1.2422 0.03125 2.1328 0.09375 2.6719 0.070313 0.54297 0.17969 0.93359 0.32812 1.1719 0.20703 0.32422 0.47266 0.57422 0.79688 0.75 0.32031 0.16797 0.69141 0.25 1.1094 0.25 1.0195 0 1.8203-0.39062 2.4062-1.1719 0.58203-0.78125 0.875-1.8672 0.875-3.2656v-7.5625h4.8906v15.312h-4.8906v-2.2188c-0.74219 0.89844-1.5234 1.5586-2.3438 1.9844-0.82422 0.41406-1.7344 0.625-2.7344 0.625-1.7617 0-3.1055-0.53906-4.0312-1.625-0.92969-1.082-1.3906-2.6602-1.3906-4.7344z"/>
  </symbol>
  <symbol id="m" overflow="visible">
   <path d="m2.5781-20.406h8.7344c2.5938 0 4.582 0.57812 5.9688 1.7344 1.3945 1.1484 2.0938 2.7891 2.0938 4.9219 0 2.1367-0.69922 3.7812-2.0938 4.9375-1.3867 1.1562-3.375 1.7344-5.9688 1.7344h-3.4844v7.0781h-5.25zm5.25 3.8125v5.7031h2.9219c1.0195 0 1.8047-0.25 2.3594-0.75 0.5625-0.5 0.84375-1.2031 0.84375-2.1094 0-0.91406-0.28125-1.6172-0.84375-2.1094-0.55469-0.48828-1.3398-0.73438-2.3594-0.73438z"/>
  </symbol>
  <symbol id="l" overflow="visible">
   <path d="m2.3594-15.312h4.8906v15.031c0 2.0508-0.49609 3.6172-1.4844 4.7031-0.98047 1.082-2.4062 1.625-4.2812 1.625h-2.4219v-3.2188h0.85938c0.92578 0 1.5625-0.21094 1.9062-0.625 0.35156-0.41797 0.53125-1.2461 0.53125-2.4844zm0-5.9688h4.8906v4h-4.8906z"/>
  </symbol>
  <symbol id="k" overflow="visible">
   <path d="m14.719-14.828v3.9844c-0.65625-0.45703-1.3242-0.79688-2-1.0156-0.66797-0.21875-1.3594-0.32812-2.0781-0.32812-1.3672 0-2.4336 0.40234-3.2031 1.2031-0.76172 0.79297-1.1406 1.9062-1.1406 3.3438 0 1.4297 0.37891 2.543 1.1406 3.3438 0.76953 0.79297 1.8359 1.1875 3.2031 1.1875 0.75781 0 1.4844-0.10938 2.1719-0.32812 0.6875-0.22656 1.3203-0.56641 1.9062-1.0156v4c-0.76172 0.28125-1.5391 0.48828-2.3281 0.625-0.78125 0.14453-1.5742 0.21875-2.375 0.21875-2.7617 0-4.9219-0.70703-6.4844-2.125-1.5547-1.4141-2.3281-3.3828-2.3281-5.9062 0-2.5312 0.77344-4.5039 2.3281-5.9219 1.5625-1.4141 3.7227-2.125 6.4844-2.125 0.80078 0 1.5938 0.074219 2.375 0.21875 0.78125 0.13672 1.5547 0.35156 2.3281 0.64062z"/>
  </symbol>
 </defs>
 <g>
  <path d="m354.54 537.6c-67.578 0-132.39-26.848-180.17-74.629-47.781-47.785-74.629-112.59-74.629-180.17s26.848-132.39 74.629-180.17c47.785-47.785 112.59-74.629 180.17-74.629s132.39 26.844 180.17 74.629c47.785 47.785 74.629 112.59 74.629 180.17-0.074219 67.555-26.941 132.32-74.711 180.09-47.77 47.766-112.54 74.637-180.09 74.711zm0-492.8c-63.121 0-123.66 25.074-168.29 69.707-44.637 44.633-69.711 105.17-69.711 168.29 0 63.121 25.074 123.66 69.711 168.29 44.633 44.637 105.17 69.711 168.29 69.711s123.66-25.074 168.29-69.711c44.633-44.633 69.707-105.17 69.707-168.29-0.074218-63.098-25.172-123.59-69.789-168.21-44.617-44.617-105.11-69.715-168.21-69.789z"/>
  <path d="m341.99 510.61h-0.44922c-5.8789-0.33594-11.762-0.89453-17.586-1.6797h0.003907c-2.2148-0.29297-4.2227-1.457-5.5781-3.2344-1.3555-1.7734-1.9492-4.0156-1.6484-6.2305 0.28125-2.207 1.4336-4.2109 3.2031-5.5586s4.0039-1.9297 6.207-1.6094c5.6016 0.67188 10.922 1.2305 16.352 1.5117 4.6406 0.13672 8.2852 4.0117 8.1484 8.6523-0.14062 4.6367-4.0117 8.2852-8.6523 8.1484zm34.047-0.67188c-4.6367 0.21484-8.5742-3.3711-8.793-8.0078-0.21484-4.6406 3.3711-8.5781 8.0117-8.793 5.6016-0.50391 10.863-1.2305 16.238-2.1836 4.6406-0.80469 9.0508 2.3047 9.8555 6.9414 0.80469 4.6406-2.3047 9.0547-6.9453 9.8594-5.6016 1.0625-11.703 1.8477-17.527 2.4062zm-84-8.0625v-0.003906c-0.8125 0-1.625-0.11328-2.4062-0.33594-5.6016-1.6797-11.199-3.6406-16.801-5.6016v0.003906c-4.3281-1.6719-6.4844-6.5352-4.8164-10.867 1.6719-4.3281 6.5352-6.4844 10.863-4.8125 5.0391 1.9609 10.246 3.6953 15.457 5.2656v-0.003907c4.0117 1.1719 6.5547 5.1133 5.9648 9.2539-0.59375 4.1367-4.1367 7.2109-8.3164 7.2109zm134.4-2.7422 0.003906-0.003906c-4.1172 0.015625-7.6406-2.9492-8.3242-7.0117-0.67969-4.0586 1.6797-8.0156 5.5781-9.3398 5.1523-1.793 10.305-3.7539 15.289-5.9375 4.0859-1.0547 8.3203 1.0859 9.8945 5 1.5742 3.9141 0 8.3906-3.6797 10.457-5.6016 2.2969-10.922 4.4805-16.52 6.3828-0.88672 0.28906-1.8125 0.44141-2.7422 0.44922zm-181.55-17.531c-1.4727-0.007812-2.918-0.39453-4.1992-1.1211-5.1523-2.9688-10.137-6.1602-15.008-9.4648-1.9141-1.2305-3.2461-3.1797-3.6953-5.4102s0.027344-4.5469 1.3164-6.418c1.2891-1.875 3.2812-3.1445 5.5273-3.5234 2.2422-0.375 4.5391 0.17188 6.3711 1.5195 4.4805 3.0781 9.1289 5.9922 13.887 8.7344l0.003906 0.003906c3.2969 1.8984 4.9062 5.7773 3.9219 9.4531s-4.3164 6.2305-8.125 6.2266zm227.02-4.6484c-3.6445-0.14062-6.7812-2.6172-7.7656-6.1289-0.98438-3.5156 0.41406-7.2617 3.457-9.2734 4.6484-2.9102 9.1836-6.0469 13.496-9.2969v0.003906c3.7266-2.7852 9.0039-2.0195 11.785 1.707 2.7852 3.7266 2.0195 9.0039-1.707 11.789-4.7031 3.4727-9.5742 6.8867-14.559 10.023-1.418 0.86328-3.0469 1.3086-4.707 1.2852zm-268.02-25.707c-2.0898-0.023438-4.0898-0.84375-5.5977-2.293-4.2578-4.0312-8.457-8.2305-12.375-12.602-2.6133-3.4766-2.1367-8.3711 1.0938-11.285 3.2305-2.9102 8.1484-2.8711 11.336 0.085938 3.6406 4.0312 7.5039 7.9531 11.48 11.703 2.4805 2.3438 3.2969 5.9492 2.0664 9.1328-1.2266 3.1797-4.2578 5.3047-7.668 5.3711zm307.66-6.2734v0.003906c-2.1016-0.0625-4.1055-0.92187-5.5977-2.4102-3.2773-3.2773-3.2773-8.5898 0-11.871 3.8086-3.9219 7.5039-8.0078 11.199-12.152 2.9844-3.5547 8.2891-4.0195 11.844-1.0352 3.5586 2.9844 4.0195 8.2891 1.0352 11.844-3.8086 4.4805-7.7852 8.9023-11.93 13.105h0.003906c-1.7031 1.7695-4.1055 2.6914-6.5547 2.5195zm-340.76-32.758c-2.8164 0.011718-5.4492-1.3984-7-3.75-3.2461-4.8711-6.3281-9.9688-9.1836-15.121-1.2422-1.9531-1.625-4.3359-1.0508-6.582 0.57031-2.2422 2.043-4.1523 4.0703-5.2734 2.0273-1.1211 4.4258-1.3555 6.6328-0.64844 2.207 0.70703 4.0234 2.293 5.0195 4.3828 2.6875 4.7617 5.6016 9.4648 8.5117 14 1.2344 1.8594 1.6797 4.1289 1.2383 6.3125-0.44141 2.1836-1.7344 4.1055-3.5898 5.3359-1.3945 0.875-3.0039 1.3398-4.6484 1.3438zm371.84-7.5586c-1.543 0.007812-3.0586-0.41797-4.3672-1.2305-3.8047-2.4844-4.9648-7.5273-2.6328-11.426 2.8555-4.6484 5.6016-9.4648 7.9531-14.336 2.0859-4.1445 7.1367-5.8125 11.281-3.7227 4.1445 2.0859 5.8125 7.1367 3.7266 11.281-2.6328 5.207-5.6016 10.414-8.5664 15.512h-0.003906c-1.5586 2.4531-4.2617 3.9336-7.168 3.9219zm-394.63-37.914c-3.5469-0.023438-6.6992-2.2617-7.8945-5.5977-2.0156-5.6016-3.8086-11.199-5.6016-16.801-1.2383-4.3984 1.2422-8.9883 5.6016-10.359 4.4062-1.3047 9.0352 1.1992 10.359 5.6016 1.457 5.207 3.1914 10.414 5.0391 15.566 0.77344 2.0859 0.68359 4.3945-0.25 6.4141-0.9375 2.0195-2.6406 3.582-4.7344 4.3359-0.78125 0.42969-1.6367 0.71484-2.5195 0.83984zm415.97-8.3438c-2.7422 0.03125-5.3281-1.2812-6.9219-3.5117s-2-5.1016-1.0859-7.6875c1.6797-5.1523 3.1367-10.473 4.3672-15.734 1.0664-4.5156 5.5938-7.3125 10.109-6.2461 4.5156 1.0664 7.3086 5.5938 6.2422 10.109-1.3438 5.6016-2.9102 11.199-4.7031 16.801-0.94141 3.6641-4.2266 6.2383-8.0078 6.2695zm-427.79-41.27c-4.2695 0-7.8594-3.207-8.3438-7.4492-0.67188-5.6016-1.1211-11.703-1.3984-17.641-0.089844-2.2266 0.71094-4.3984 2.2227-6.0391 1.5117-1.6367 3.6133-2.6055 5.8398-2.6953 4.6406-0.1875 8.5508 3.4258 8.7344 8.0625 0 5.6016 0.67188 11.199 1.2891 16.352 0.26953 2.2148-0.35156 4.4453-1.7305 6.1992-1.375 1.7539-3.3906 2.8867-5.6055 3.1523zm437.81-9.1289h-0.67188c-4.6094-0.38672-8.0508-4.4023-7.7266-9.0156 0.39063-5.6016 0.61719-10.922 0.61719-16.406v-0.95312h-0.003906c0-4.6406 3.7617-8.4023 8.4023-8.4023 4.6367 0 8.3984 3.7617 8.3984 8.4023v0.95312c0 5.8789 0 11.816-0.67188 17.695-0.34766 4.3516-3.9766 7.7109-8.3438 7.7266zm-437.92-41.945h-0.95312 0.003906c-2.2109-0.23828-4.2305-1.3477-5.6172-3.082s-2.0273-3.9492-1.7773-6.1562c0.67188-5.8789 1.5664-11.762 2.6875-17.527h0.003906c0.30469-2.2969 1.543-4.3594 3.4219-5.7109s4.2305-1.8672 6.5-1.4297c2.2734 0.44141 4.2617 1.8008 5.5 3.7539 1.2383 1.957 1.6133 4.3359 1.0391 6.5781-1.0078 5.6016-1.8477 10.809-2.4648 16.184h0.003906c-0.51172 4.2188-4.0938 7.3945-8.3477 7.3906zm435.57-9.8555h0.003907c-4.1367-0.003907-7.6523-3.0234-8.2891-7.1094-0.83984-5.3203-1.9609-10.754-3.1914-16.016v-0.003907c-0.67188-2.207-0.40234-4.5938 0.74219-6.6016 1.1406-2.0039 3.0625-3.4531 5.3047-4 2.2422-0.54688 4.6133-0.14453 6.5508 1.1094 1.9375 1.25 3.2773 3.2461 3.6992 5.5195 1.3984 5.6016 2.5742 11.594 3.4727 17.359 0.35156 2.207-0.1875 4.4609-1.5 6.2695-1.3125 1.8086-3.293 3.0156-5.5 3.3633zm-423.97-39.816c-0.97266-0.003906-1.9414-0.17187-2.8555-0.50391-4.3594-1.5781-6.6172-6.3906-5.0391-10.75 1.9609-5.6016 4.1992-11.199 6.6641-16.406v-0.003906c0.87109-2.1016 2.5586-3.7578 4.6758-4.5898 2.1172-0.83594 4.4805-0.77344 6.5547 0.16797 2.0703 0.94141 3.6719 2.6797 4.4375 4.8242 0.76172 2.1406 0.625 4.5039-0.38281 6.543-2.2383 4.9844-4.3125 10.078-6.1602 15.176-1.1875 3.3359-4.3516 5.5586-7.8945 5.543zm410.14-9.1836c-3.4102 0.007812-6.4883-2.0508-7.7852-5.207-2.0703-4.9844-4.3672-10.023-6.832-14.84-1.0547-1.9844-1.2773-4.3047-0.62109-6.4531 0.65625-2.1445 2.1406-3.9453 4.1211-5 4.1289-2.1953 9.2578-0.62891 11.453 3.5 2.6875 5.207 5.1523 10.641 7.3906 16.07v0.003907c0.92578 2.082 0.96484 4.4492 0.10938 6.5625-0.85547 2.1094-2.5312 3.7852-4.6445 4.6367-1.0039 0.45703-2.0898 0.70703-3.1914 0.72656zm-387.02-36.457c-1.6367 0.011718-3.2383-0.47656-4.5938-1.3984-1.8711-1.2031-3.1836-3.1055-3.6445-5.2812-0.46484-2.1797-0.039062-4.4492 1.1797-6.3086 3.2461-4.9297 6.6641-9.8008 10.246-14.449h0.003907c2.8438-3.6797 8.1367-4.3594 11.816-1.5117 3.6797 2.8438 4.3555 8.1328 1.5117 11.816-3.3047 4.3125-6.5508 8.793-9.5195 13.328-1.5469 2.3633-4.1758 3.7969-7 3.8047zm362.15-8.3438c-2.6992-0.007813-5.2344-1.2969-6.832-3.4688-3.1914-4.4805-6.6094-8.793-10.078-12.938h-0.003907c-3-3.543-2.5586-8.8438 0.98047-11.844 3.543-3 8.8438-2.5625 11.844 0.98047 3.7539 4.4805 7.4492 9.1289 10.863 13.945v-0.003907c1.3164 1.7969 1.8633 4.0391 1.5156 6.2383-0.34766 2.1992-1.5586 4.168-3.3633 5.4688-1.4219 1.0586-3.1523 1.625-4.9258 1.6211zm-329.73-30.797c-3.4062-0.070312-6.4375-2.1914-7.6641-5.375-1.2305-3.1797-0.41406-6.7891 2.0664-9.1289 4.2578-4.0898 8.7344-8.0078 13.273-11.703l-0.003907-0.003906c1.6797-1.7695 4.043-2.7227 6.4766-2.6133 2.4375 0.10938 4.7031 1.2734 6.2148 3.1836 1.5117 1.9141 2.1172 4.3906 1.6602 6.7852-0.46094 2.3945-1.9336 4.4727-4.0469 5.6953-4.1992 3.4141-8.3438 7.0547-12.32 10.809v-0.003906c-1.5156 1.4805-3.5391 2.3203-5.6562 2.3555zm295.29-6.6641c-2.0508-0.011719-4.0352-0.74609-5.6016-2.0742-4.0312-3.5859-8.3438-7-12.77-10.246h0.003906c-3.7031-2.7852-4.4766-8.0273-1.7383-11.762 2.7422-3.6523 7.9062-4.4258 11.594-1.7344 4.7617 3.4727 9.3516 7.2227 13.777 11.199 2.6914 2.3008 3.6523 6.0469 2.3945 9.3594-1.2539 3.3164-4.4531 5.4844-7.9961 5.4258zm-254.46-24.137c-3.8164 0.027344-7.1719-2.5156-8.1719-6.1992-1-3.6836 0.60938-7.5781 3.918-9.4805 5.1523-2.9688 10.359-5.6016 15.625-8.2891h-0.003907c4.1758-2.0273 9.2031-0.28516 11.23 3.8906 2.0234 4.1758 0.28125 9.2031-3.8906 11.23-4.8711 2.3516-9.7422 4.9297-14.504 7.7266h-0.003906c-1.2773 0.72656-2.7266 1.1133-4.1992 1.1211zm212.35-4.6484c-1.3633 0.015625-2.7109-0.30859-3.918-0.95312-4.7617-2.5195-9.7422-4.8711-14.785-7-2.2383-0.73047-4.0703-2.3633-5.043-4.5078-0.97656-2.1445-1.0078-4.6016-0.085938-6.7656 0.92188-2.168 2.7148-3.8477 4.9336-4.6328 2.2227-0.78516 4.668-0.60156 6.7461 0.50781 5.6016 2.2969 10.809 4.8711 15.961 7.5586 3.3594 1.8125 5.0742 5.6562 4.1797 9.3633-0.89453 3.707-4.1719 6.3477-7.9883 6.4297zm-165.59-15.566c-4.1211-0.0625-7.5898-3.1055-8.1875-7.1797-0.59766-4.0781 1.8516-7.9883 5.7773-9.2305 5.6016-1.6797 11.199-3.1914 16.801-4.4805 4.5312-1.0039 9.0195 1.8555 10.023 6.3828 1.0078 4.5312-1.8516 9.0195-6.3828 10.027-5.6016 1.1758-10.695 2.5742-15.902 4.1445v-0.003906c-0.69531 0.19922-1.4102 0.3125-2.1289 0.33984zm117.6-2.6328h-0.003906c-0.67969-0.011719-1.3555-0.10547-2.0156-0.28125-5.6016-1.3438-10.695-2.4648-16.07-3.4141-2.3086-0.25-4.4141-1.4414-5.8125-3.293-1.3984-1.8555-1.9648-4.2031-1.5703-6.4922 0.39453-2.2891 1.7188-4.3086 3.6602-5.5859 1.9375-1.2773 4.3203-1.6914 6.5781-1.1523 5.6016 1.0078 11.594 2.2383 17.305 3.6406 4.6406 0.57422 7.9375 4.7969 7.3633 9.4375-0.57031 4.6406-4.7969 7.9375-9.4375 7.3633zm-67.371-6.3281c-4.6367 0.13672-8.5117-3.5117-8.6523-8.1484-0.13672-4.6406 3.5117-8.5117 8.1484-8.6523 4.6484 0 9.3516-0.33594 14-0.39062h3.6406c4.625 0.089844 8.3203 3.8828 8.2891 8.5117 0.015625 2.2422-0.88281 4.3945-2.4883 5.957-1.6094 1.5664-3.7852 2.4062-6.0234 2.3281h-3.4141c-4.1445 0-8.6797 0-12.992 0.39062z"/>
  <path d="m368.26 364.28v37.297-0.003906c0 5.5156-4.457 9.9961-9.9688 10.027-5.5391 0-10.023-4.4883-10.023-10.027v-38.023"/>
  <path d="m348.27 193.14v-37.297c-0.0625-2.6953 0.96875-5.3047 2.8555-7.2344 1.8867-1.9258 4.4688-3.0156 7.168-3.0117 5.5117 0.027344 9.9688 4.5078 9.9688 10.023v37.969"/>
  <path d="m411.6 222.32c-14.668-13.703-33.863-21.535-53.93-22.008-21.48 0.37891-41.965 9.1211-57.098 24.367-15.133 15.25-23.719 35.801-23.934 57.281 0.25 20.746 8.8242 40.52 23.801 54.879 15.285 14.949 35.586 23.672 56.949 24.473 19.445-0.67578 38.098-7.8516 52.977-20.383 4.3438-3.6172 9.2188-6.543 14.449-8.6836 9.1836 0-7.6172 17.531-7.6172 17.531-16.555 14.148-37.582 21.984-59.359 22.117-49.391 0-92.457-41.215-92.457-90.832 0.32422-24.355 10.234-47.602 27.586-64.699 17.348-17.098 40.738-26.668 65.094-26.637 21.898 0.058594 42.988 8.2852 59.137 23.074 0 0 7.8945 7.8398 7.8945 9.6875-0.27734 9.1289-12.43 1.0625-13.492-0.16797z"/>
  <path d="m357.84 374.7c-24.934-0.14062-48.832-10-66.613-27.484-17.777-17.488-28.031-41.219-28.586-66.148 0.28125-25.062 10.434-49.004 28.258-66.629 17.82-17.625 41.875-27.508 66.941-27.504 22.508 0.09375 44.176 8.582 60.762 23.797 8.793 8.7344 8.793 10.863 8.793 11.762h-0.003906c0.30469 2.75-1.1523 5.3945-3.6367 6.6094-5.6016 2.4062-14.504-4.6484-14.559-4.7617h-0.003906c-14.145-13.223-32.664-20.777-52.023-21.223-20.668 0.44922-40.344 8.9375-54.855 23.656-14.512 14.723-22.719 34.52-22.871 55.191 0.21094 19.996 8.4883 39.059 22.957 52.863 14.758 14.434 34.367 22.84 54.992 23.574 18.77-0.66797 36.77-7.6094 51.129-19.711 0 0 11.93-9.3516 16.297-9.3516 2.1523-0.25781 4.2227 0.92578 5.0938 2.9102 2.0156 4.6484-4.8711 13.105-11.199 19.375v0.003906c-16.949 14.605-38.5 22.773-60.871 23.07zm0-182.17c-28.98-0.17188-56.203 13.883-72.84 37.613-16.641 23.734-20.574 54.117-10.531 81.301 10.047 27.188 32.789 47.715 60.859 54.93s57.895 0.19531 79.801-18.777c3.6992-3.6133 6.8477-7.7422 9.3516-12.266-4.3594 2.0977-8.4727 4.668-12.266 7.6719-15.398 12.957-34.707 20.355-54.824 21-22.082-0.75781-43.086-9.7227-58.91-25.145-15.559-14.859-24.445-35.383-24.641-56.895 0.17188-22.191 9-43.438 24.609-59.211 15.605-15.773 36.758-24.828 58.941-25.238 20.844 0.42188 40.789 8.5391 56 22.793 1.625 1.457 7.2227 4.3125 8.5117 3.6406 0.11719-0.48047 0.11719-0.98047 0-1.457-2.2109-2.6836-4.5664-5.2422-7.0547-7.6719-15.496-14.234-35.742-22.184-56.785-22.289z"/>
 </g>
</svg>
